<svg xmlns="http://www.w3.org/2000/svg" width="1408" height="768"><path fill="#c96e50" d="m529.24 92.869 3.833-.012 4.204.003 4.471-.01q7.446-.01 14.891-.011l10.653-.015q14.493-.019 28.984-.024l18.099-.012q25.058-.019 50.114-.026h6.487l6.515-.002h3.264q26.179-.009 52.358-.046 26.88-.035 53.76-.037 15.09.001 30.182-.025 14.193-.023 28.388-.01a3403 3403 0 0 0 10.422-.013c4.741-.013 9.482-.007 14.223.004l4.17-.025C886.28 92.67 895.823 95.04 905 103c9.278 10.456 11.15 19.738 11.14 33.328l.01 3.872q.01 6.452.011 12.904l.015 9.229q.019 12.558.024 25.116.005 7.844.012 15.687.02 24.534.027 49.069.007 28.333.05 56.665.034 21.891.034 43.781 0 13.08.025 26.157.023 12.305.01 24.61-.002 4.515.013 9.029c.013 4.112.007 8.224-.004 12.336l.025 3.597c-.078 13.198-3.112 22.157-12.568 31.85-7.321 6.943-14.95 9.89-24.942 9.901l-3.826.012-4.213-.003-4.468.01q-7.45.01-14.9.011l-10.653.015q-14.499.019-28.997.024l-18.105.012q-25.064.019-50.127.026h-6.491l-6.518.002h-3.265q-26.189.009-52.378.046-26.886.035-53.773.037-15.096-.001-30.192.025-14.2.023-28.4.01-5.214-.002-10.428.013c-4.743.013-9.486.007-14.23-.004l-4.171.025c-12.1-.062-20.466-2.187-29.747-10.392-10.264-10.432-12.15-20.24-12.14-34.417l-.01-3.864q-.01-6.43-.011-12.86l-.015-9.205q-.019-12.517-.024-25.035-.005-7.82-.012-15.637-.02-24.454-.027-48.91-.007-28.241-.05-56.483-.034-21.822-.034-43.644 0-13.038-.025-26.074a7945 7945 0 0 1-.01-24.528q.002-4.5-.013-9c-.013-4.097-.007-8.194.004-12.291l-.025-3.592c.076-12.68 3.57-23.525 12.642-32.772 7.938-5.69 15.232-8.808 24.99-8.82"/><path fill="#c96f50" d="M470 196c.622 3.777.622 3.777.62 9.182l.018 2.994c.015 3.344-.006 6.688-.026 10.032q.005 3.577.017 7.153.017 7.73-.007 15.46a4893 4893 0 0 0 .004 24.458c.024 14.377.019 28.754.006 43.13q-.03 32.409.02 64.818.017 12.148-.01 24.296-.01 7.578.004 15.158 0 3.505-.014 7.009c-.08 19.966 1.706 38.936 16.43 53.998 14.255 12.936 29.087 17.723 48.173 17.422l3.948-.036q4.267-.04 8.534-.095 6.945-.085 13.889-.148 7.482-.07 14.965-.146c12.353-.125 24.706-.21 37.06-.27 1.793-.01 3.586-.018 5.433-.027q11.09-.054 22.177-.102c20.999-.095 41.995-.23 62.991-.49a4356 4356 0 0 1 50.058-.336c8.832-.01 17.658-.066 26.489-.227 8.299-.151 16.59-.186 24.89-.13q4.572 0 9.145-.134c18.883-.523 18.883-.523 25.186 3.031 5.265 7.171 5.601 16.398 6 25l.398 4.538c.752 11.042-3.476 20.364-10.152 28.95-5.467 6.113-10.99 9.406-18.941 11.422l-4.029 1.03L809 564l-4.255 1.062c-4.683 1.159-9.37 2.3-14.058 3.438l-5.343 1.3q-8.67 2.104-17.344 4.2l-3.002.726c-25.737 6.22-51.49 12.363-77.28 18.358a3895 3895 0 0 0-33.583 7.987 9019 9019 0 0 1-32.354 7.75l-10.933 2.602-5.62 1.338c-52.363 12.469-52.363 12.469-77.894 18.76q-4.74 1.169-9.48 2.332c-14.973 3.677-14.973 3.677-22.089 5.456-4.73 1.182-9.466 2.345-14.202 3.504l-3.951 1.007c-12.475 3.016-24.808 3.992-36.612-1.82-15.191-9.655-19.703-22.94-23.52-39.64l-1.015-4.383q-1.644-7.112-3.277-14.227l-2.294-9.916q-2.332-10.08-4.66-20.163a14704 14704 0 0 0-8.744-37.595q-1.298-5.555-2.594-11.111a26979 26979 0 0 0-7.822-33.442c-4.834-20.606-9.62-41.222-14.326-61.857A3921 3921 0 0 0 362.75 367a1720 1720 0 0 1-9.129-40.05c-2.662-12.321-5.573-24.58-8.514-36.838-9.076-37.898-9.076-37.898-.295-52.925L348 233l2.625-3.687c10.7-10.502 26.735-12.453 40.813-15.75q3.595-.86 7.19-1.723 7.03-1.685 14.065-3.347a3028 3028 0 0 0 19.522-4.696q5.04-1.224 10.082-2.43a2337 2337 0 0 0 11.031-2.672l4.672-1.132 3.813-.934C465 196 465 196 470 196"/><path fill="#c96f50" d="M938 245c4.833-.149 4.833-.149 10 2l3.852 1.008c9.439 2.794 18.772 5.843 28.099 8.988a500 500 0 0 0 18.236 5.754c10.032 2.983 20.023 6.09 30 9.25l4.882 1.51c14.364 4.59 24.477 10.161 32.306 23.553 9.107 22.067-2.649 45.498-9.375 66.875l-2.669 8.51q-2.774 8.846-5.551 17.692c-3.957 12.605-7.895 25.216-11.833 37.827l-6.263 20.049-1.214 3.884q-3.745 11.98-7.497 23.96a11551 11551 0 0 0-19.644 63.346 10411 10411 0 0 1-20.088 64.609c-3.785 12.058-7.545 24.12-11.155 36.232l-1.765 5.872q-1.574 5.256-3.101 10.525c-3.955 13.155-9.394 23.926-21.845 31.06-12.175 6.211-24.255 6.1-37.312 2.183a859 859 0 0 1-7.89-2.625c-6.526-2.184-13.106-4.195-19.673-6.25l-9.133-2.878a3314 3314 0 0 0-27.742-8.559c-24.017-7.319-47.982-14.795-71.937-22.312l-3.374-1.059a62290 62290 0 0 1-31.658-9.942c-14.45-4.536-28.924-8.982-43.446-13.284-9.007-2.676-9.007-2.676-11.21-3.778v-2c12.898-4.666 26.844-7.117 40.191-10.191 7.198-1.66 14.38-3.378 21.559-5.121a5851 5851 0 0 1 30.83-7.387c7.166-1.7 14.33-3.413 21.492-5.127 4.47-1.065 8.942-2.113 13.416-3.158l7.387-1.766 3.25-.742c16.305-3.962 30.444-13.119 40-27.07 10.428-18.23 10.501-36.477 5.75-56.489C863 496 863 496 863 492c3.641-.401 7.039-.552 10.688-.562 18.768-.467 33.033-4.65 47.312-17.438 13.873-16.114 16.474-33.596 16.274-54.316l-.027-8.736q-.018-4.656-.05-9.312c-.04-6.473-.05-12.947-.054-19.42-.015-18.399-.05-36.797-.16-55.195a4132 4132 0 0 1-.07-30.546c.005-5.386-.007-10.77-.064-16.156-.062-5.982-.049-11.962-.028-17.944l-.095-5.457c.09-8.19.09-8.19 1.274-11.918"/><path fill="#c86e4f" d="M522 95c-5 2-5 2-8 2v2l3.556-1.84c7.033-2.79 13.049-2.753 20.542-2.726l4.333-.02q4.51-.01 9.019.01c4.629.014 9.255-.02 13.884-.059q4.381 0 8.764.006l4.223-.04c3.855.038 3.855.038 9.679.669v5h2l-1 4-2-4h-5v-2h-2a256 256 0 0 0 0 8l-1 2h2l-1 2h-4c.875-3 .875-3 2-6h-2v-2l-2 1 .188 4c-.227 6.04-1.548 9.198-5.188 14-3.812-.062-3.812-.062-7-1v2h-2v-3h-3l1 4h-4l-1-3 1-2h-2l-.187 3.563L551 125c-3.312-.187-3.312-.187-7-1l-4 2v-3l-3-1v-5h-3l-2-4h-3a330 330 0 0 0-1 9h-2l-1-2h-3v-3h2v-2l-3-3v-4c-2.937-1.875-2.937-1.875-6-3l-1 2-3.937-2.187L506 103l-2 5-2-1 1 5-2 1v6l-2.956.596L495 121c-.603 4.338-.774 8.117-.708 12.465l-.011 3.99c-.006 4.444.032 8.887.07 13.33q.007 4.76.007 9.519c.007 8.64.05 17.28.1 25.92.044 9.02.054 18.039.066 27.058.03 17.092.087 34.184.157 51.275.124 30.632.199 61.264.263 91.896q.036 16.144.107 32.289c.028 6.678.047 13.355.065 20.033q.015 4.67.042 9.337c.023 4.226.034 8.451.042 12.677l.03 3.793c0 2.807-.102 5.614-.23 8.418h-2c-1.17-5.852-1.145-11.48-1.14-17.417l-.01-3.864q-.01-6.43-.011-12.86l-.015-9.205q-.019-12.517-.024-25.035-.005-7.82-.012-15.637a81117 81117 0 0 1-.027-48.91q-.007-28.241-.05-56.483-.034-21.822-.034-43.644 0-13.038-.025-26.074-.023-12.264-.01-24.528.002-4.5-.013-9a2176 2176 0 0 1 .004-12.291l-.025-3.592c.076-12.68 3.57-23.525 12.642-32.773C515.759 93.44 515.759 93.44 522 95"/><path fill="#cf8f78" d="M493 124c3.095 3.095 2.248 6.4 2.267 10.555l-.013 3.72.01 3.928c.007 4.375.001 8.749-.005 13.124q.003 4.684.01 9.37c.01 8.506.006 17.011 0 25.517-.005 8.88 0 17.759.002 26.638q.005 22.368-.01 44.736-.015 25.908.003 51.815.013 22.197.006 44.395-.007 13.278.003 26.556.007 12.477-.01 24.953-.004 4.596.002 9.192c.006 4.16-.001 8.32-.011 12.48l.013 3.733c-.013 2.764-.127 5.528-.267 8.288h-2c-1.174-5.872-1.138-11.52-1.127-17.477l-.005-3.884c-.004-4.308 0-8.616.003-12.923l-.006-9.249q-.005-12.572 0-25.145c.003-8.756 0-17.512 0-26.268q-.004-22.052.005-44.104.007-25.536-.002-51.071-.007-21.89-.003-43.78.003-13.09-.001-26.18-.004-12.297.005-24.594l-.002-9.055q-.002-6.15.006-12.3l-.007-3.672c.02-8.184.02-8.184 1.134-9.298"/><path fill="#cd866d" d="M880 94c10.124-.868 16.263 2.197 24.25 8.188 6.239 6.343 10.606 12.926 10.875 22.062L915 128h-1l-.187-3-.813-3h-6l-1-4h-2v-6h2v3l3-3h-2v-4l-5-1v-2l-2.875.563L896 106l-2-3-2-1-1-4-2-1v-2q-4.5-.063-9 0z"/><path fill="#ca7a5e" d="M999 264c5.224.284 9.996 1.8 14.938 3.438l4.027 1.308L1021 270v2h2l1 5 4 2-1 3c-5 2-5 2-8 2l-1-4h-4c-2-4-2-4-1-8h-2v-2l-4 1-3-1-1-2-3-1z"/><path fill="#c97a5d" d="M467 285h1c.117 4.64.165 9.265.174 13.906l.02 4.477q.021 4.837.036 9.675.026 7.644.065 15.289.105 21.743.182 43.485.049 13.275.12 26.552.024 5.075.037 10.149c.012 4.725.036 9.449.063 14.173l.002 4.275.03 3.888.012 3.388C469 437 469 437 471 440a110 110 0 0 1 1.563 5.875l.753 3.117c.605 2.66 1.15 5.333 1.684 8.008-4-3-4-3-4.758-5.848l-.367-3.214c-.682-5.745-.682-5.745-2.875-7.938-.249-2.667-.249-2.667-.247-6.125l-.013-3.96.017-4.37-.006-4.583c-.003-5.021.007-10.042.019-15.064v-10.416q.003-10.928.024-21.856.023-14.05.02-28.101.001-10.758.013-21.515.005-5.182.006-10.366.004-7.224.022-14.447l-.002-4.383c.011-3.271.072-6.543.147-9.814"/><path fill="#cd8e78" d="M602 609c2.354.589 4.69 1.257 7 2-4.92 2.46-9.94 3.526-15.266 4.75l-3.355.784A5317 5317 0 0 1 579.75 619q-5.293 1.23-10.586 2.466l-6.584 1.53c-4.37 1.012-8.727 2.042-13.067 3.176C546 627 546 627 542 627v-2h4v-2c4.36-1.744 6.624-2.251 11.125-2.437C563 620 563 620 566 617c3-.04 6-.043 9 0l1-2c3.212-.615 6.447-1.117 9.688-1.562 1.777-.25 3.555-.498 5.386-.754a784 784 0 0 1 8.57-1.149L602 611z"/><path fill="#cb795d" d="M986 579h2c-1.047 6.624-2.78 12.91-4.82 19.29l-1.621 5.097-1.684 5.238-1.707 5.355A6305 6305 0 0 1 974 627l-2-4h2c-.402-4.218-1.586-8.023-3-12l-1-3h2v-6l2.875.688L978 603c1.25-4.25 1.25-4.25 2-9l2-3h2v-3.75c0-4.25 0-4.25 2-8.25"/><path fill="#cd836a" d="m967 633 2 2 2-1c-1.568 7.677-3.75 15.086-6.062 22.563l-1.104 3.634A443 443 0 0 1 961 669h-1l.063-5.5L960 658h-2v-2h-3l1-4h2l2-5c5-3 5-3 6-3 .75-3.437.75-3.437 1-7l-3-1v-2z"/><path fill="#d29580" d="M344 281h2v8h2a140 140 0 0 1 2 7l1 2 3 1c.279 5.58.044 10.639-.625 16.188L353 319h2v9h2c.39 1.99.719 3.992 1 6l1 2-1 5c-2.532-3.798-3.079-7.155-4.059-11.621l-1.17-5.275c-.398-1.829-.797-3.658-1.209-5.541q-1.183-5.374-2.37-10.747l-1.133-5.144a370 370 0 0 0-2.844-11.645C344 286 344 286 344 281"/><path fill="#cc846c" d="M746 566h2v6h24c-3.492 1.746-6.184 2.64-9.937 3.508l-3.461.8-3.602.817-3.602.84C742.516 580 742.516 580 738 580v-4h4v-6h2v-2h2z"/><path fill="#ce8e77" d="M957 669h3c-4.03 10.077-11.557 16.095-21 21-5.17 2.172-9.794 2.268-15.375 2.25l-4.898.016L915 692v-2l-3-1 5.688.07q3.656.029 7.312.055l3.758.05c3.081.018 6.163-.07 9.242-.175v-2l2-1 1-2 3 1 1-4 2-2h3l-1-4 2-1 3 1v-4h2z"/><path fill="#d08d75" d="M522 95c-5 2-5 2-8 2l2 5-4 3-3.125-1.125L506 103l-2 5-2-1 1 5-2 1v6c-2.875 1.188-2.875 1.188-6 2l-2 3c.392-8.815 4.759-15.684 10.75-21.875C515.612 93.403 515.612 93.403 522 95"/><path fill="#cd8b73" d="M961 252c4.172.226 8.089 1.541 12.063 2.777l3.414 1.057 3.523 1.103 3.523 1.092c5.177 1.608 10.339 3.245 15.477 4.971-6.184 2.061-13.698.26-20-1h-5v-2l-5-1-2-2-5-1z"/><path fill="#cd8065" d="m1009 500 3 2c-1.109 7.514-3.7 14.773-6 22l-1-3h-2l1-5-4-2c.938-5 .938-5 3-10l5-2z"/><path fill="#cf8b74" d="M373 407c4 3 4 3 4.469 5.883l.031 3.242.5 5.875c4 1 4 1 7 0v3h-2c-.75 4-.75 4-1 8h2c-.242 2.625-.242 2.625-.875 6l-.617 3.375L382 445c-1.865-3.73-2.784-6.78-3.727-10.812l-.937-4.008-.961-4.18-.984-4.18C373 411.515 373 411.515 373 407"/><path fill="#cc8b75" d="m703.04 622.918 3.585.27 3.602.23L713 624v3c2.938-.188 2.938-.188 6-1l1-2 3 1-1 2 3 2v2l3.125-.125c4.527.146 6.362 1.383 9.875 4.125-4.55 1.137-6.105.609-10.488-.8l-3.83-1.214-3.994-1.299-7.801-2.488-3.494-1.13a128 128 0 0 0-7.448-2.081L698 625c2-2 2-2 5.04-2.082"/><path fill="#d49781" d="M712 611h-3v2c-2.662.367-5.33.695-8 1-3.687.813-3.687.813-6 2l3 4-2 2 2 2c-6.167-1.272-12.109-2.756-18-5v-2c23.734-8.066 23.734-8.066 32-6"/><path fill="#cd7d62" d="M850 656h2v6h2v-2l3 1c-.75 3.313-.75 3.313-2 7l-1 4c2.938.75 2.938.75 6 1-4.9 1.225-7.024.264-11.75-1.375l-4.11-1.398L841 669v-1l2.938-.375L847 667l1-3h-2v-5l2-1v2h2z"/><path fill="#ce8c74" d="M448 202c-4 3-4 3-8 3v3c-4 1-4 1-7 0l-3 3c-3.687-.187-3.687-.187-7-1v-2h-2v2c-3-.375-3-.375-6-1 5.28-2.64 10.793-3.817 16.5-5.187l3.457-.866c8.562-2.067 8.562-2.067 13.043-.947"/><path fill="#d49781" d="m866 506 3 1c.338 3.957.514 7.787.563 11.75.184 11.616.184 11.616 2.437 17.25h-2c-1.456 4.49-2.737 8.999-3.937 13.563L865 552l-4 1 1.313-4.312L864 543l1.688-5.062c2.511-9.246 1.775-19.149.625-28.563z"/><path fill="#d09884" d="M704 586c3 .313 3 .313 6 1v1a252 252 0 0 1-8.32 2.031l-5.25 1.207-5.555 1.262-5.484 1.262C670.69 597.127 670.69 597.127 665 598l2-1v-2c4.275-1.71 7.52-2.397 12-3l1-1 3.563.063L687 591v-2c4.426-.41 8.84-.511 13.281-.656L704 588z"/><path fill="#c9775b" d="m921.313 476 2.687 1 1 3c-4.468 4.821-8.642 5.91-15 7l-4 1c1.46-2.921 3.643-4.747 6-7l2.938-2.875C918 476 918 476 921.313 476"/><path fill="#ce8971" d="M427 622v5l3 1v2h5c3.813.563 3.813.563 7 2 .375 3.438.375 3.438 0 7l1 3c-7.987-3.195-14.891-9.343-19-17v-2c2-1 2-1 3-1"/><path fill="#cc8a71" d="M802 560c2.69.064 5.378.201 8.063.375l4.472.273L818 561v1a515 515 0 0 1-12.75 3.063l-3.656.853C792.51 568 792.51 568 788 568c1-3 1-3 5-6 2.658-.397 5.325-.737 8-1z"/><path fill="#d49b87" d="m843 572 2 1c-1.562 2.5-1.562 2.5-4 5l-5 1v2c-6.477 3.504-10.731 5-18 5-4.937.375-4.937.375-9 1v2c-3-.375-3-.375-6-1 4.484-2.242 8.611-3.139 13.5-4.25 10.023-2.448 18.181-5.511 26.5-11.75"/><path fill="#cd8d75" d="M914 433h1c.615 8.731-.674 14.76-6.129 21.715-3.482 3.998-6.083 6.89-10.871 9.285l1-5h4a150 150 0 0 0 1-6h3v-2c0-1 0-1 1-4l3-1v-5h2q.562-3.993 1-8"/><path fill="#cf8d76" d="M495 632c3.161.168 6.323.357 9.473.672 4.186.39 8.325.4 12.527.328-4.754 2.377-9.331 3.442-14.5 4.688l-5.656 1.386C492 640 492 640 488 639h2l1-3 5-1z"/><path fill="#d49b87" d="M840 495c6.075 12.15 7.656 27.085 5.188 40.375L844 538h-3c-.687-3-.687-3-1-6l4 2c.442-7.002.617-13.38-2-20h-1a318 318 0 0 1-.562-9.5l-.254-5.344z"/><path fill="#d9a694" d="m1064 297 2 1c5.132 15.396 2.081 28.054-3 43l-2-3 1-5h1l1-5h2l-1-4h2c-.018-3.17-.167-6.338-.375-9.5l-.336-5.344L1066 305l-2 3c-1.05-4.198-.904-6.81 0-11"/><path fill="#d19884" d="M986 579h2c-1.254 8.619-3.96 16.834-6.562 25.125l-1.249 4.055c-2.277 7.306-2.277 7.306-3.189 9.82h-1c-.153-3.975.03-7.12 1-11h2l-.062-4.062c.062-4.914.707-7.68 3.062-11.938h2v-3.75c0-4.25 0-4.25 2-8.25"/><path fill="#cc856b" d="M503 486c3.813 1 3.813 1 9 3l5.5 1.063 4.5.937 1 2h-7v2c-5 1-5 1-8-1v-2h-4c-1.312-3.187-1.312-3.187-1-6"/><path fill="#cb8168" d="M638 601v2l4 1c-8.473 2.384-15.268 3.28-24 2 2.496-2.496 4.65-2.949 8-4 5.068-2.027 6.867-2.208 12-1"/><path fill="#cc7f65" d="m989 564 1 3h2c-.355 2.625-.355 2.625-1.187 6l-.793 3.375L989 579h-3a212 212 0 0 0-2 10h-1l-.375-2.812C982 583 982 583 979 580l2-3h3l1-2 1 1a253 253 0 0 0 2-6l1-1z"/><path fill="#cf917b" d="M361 223v2l-3 1c-2.863 3.054-4.507 5.989-6.437 9.75L349 240l-5 1c.484-6.125 5.74-10.97 10-15 5-3 5-3 7-3"/><path fill="#d29d8b" d="M398 214h-2v2c-3.264.938-6.564 1.747-9.875 2.5l-5.555 1.281L375 221l-5.445 1.219C365 223 365 223 361 222a430 430 0 0 1 23.563-6.812l5.128-1.333C394 213 394 213 398 214"/><path fill="#ce8f78" d="M736 605h-2v2c-5 2.75-5 2.75-10 5v-2l-3.75.5c-4.25.5-4.25.5-8.25-1.5a1611 1611 0 0 1 9.75-2.562l5.484-1.442C732 604 732 604 736 605"/><path fill="#cd846c" d="M1020 473c1.31 3.928.419 5.937-.75 9.875-.345 1.214-.69 2.429-1.047 3.68L1017 489c-3.133-3.133-3.645-4.935-5-9h-2v-2c7.154-3 7.154-3 10-3z"/><path fill="#d29883" d="M999 537h2c-1.111 7.049-3.005 13.801-5.062 20.625l-1.598 5.352L993 567h-1c-.187-4-.187-4 0-8h2c.369-4.362.446-8.71.559-13.086.145-1.292.29-2.583.441-3.914l3-2z"/><path fill="#cc876e" d="m838 538 4 2c-2.924 7.31-6.217 11.93-13 16l-2-5h3l1-4 1 3h3l-1-4h3l.438-4.125z"/></svg>